<svg xmlns="http://www.w3.org/2000/svg" width="176.627" height="173.22" viewBox="0 0 176.627 173.22">
  <g id="Group_6" data-name="Group 6" transform="translate(-439 -115)">
    <g id="virus" transform="translate(439 115)">
      <g id="Group_4" data-name="Group 4" transform="translate(2.593 2.592)">
        <g id="Group_3" data-name="Group 3">
          <g id="XMLID_427_">
            <g id="Group_1" data-name="Group 1">
              <path id="Path_2" data-name="Path 2" d="M174.6,97.477a5.378,5.378,0,0,1,4.241,6.308l-2.126,10.826a5.373,5.373,0,0,1-6.561,4.183,5.472,5.472,0,0,1-3.958-6.4l.059-.29-14.013.639a1.012,1.012,0,0,0-.919.7,60.291,60.291,0,0,1-5.351,11.76,1.021,1.021,0,0,0,.093,1.179l6.2,7.363a6.47,6.47,0,0,1,9.592,8.624l-1.8,2.347a6.572,6.572,0,0,1-8.9,1.524,6.471,6.471,0,0,1-2.465-7.4l-8.929-3.923a1.019,1.019,0,0,0-1.165.252,60.937,60.937,0,0,1-14.276,11.563,1.02,1.02,0,0,0-.494,1.047l2.285,13.937,1.977-.792a5.377,5.377,0,0,1,7.079,3.239,5.47,5.47,0,0,1-3.225,6.8l-10.1,4.044a5.375,5.375,0,0,1-7.076-3.239,5.476,5.476,0,0,1,3.225-6.8l.273-.107-8.151-11.421a1.015,1.015,0,0,0-1.089-.391,60.908,60.908,0,0,1-27.411.712,1.028,1.028,0,0,0-1.068.449L72.391,167l.287.1a6.536,6.536,0,0,1,3.9,8.386c0,3.827-2.942,5.887-6.537,4.573l-10.021-3.654a6.534,6.534,0,0,1-3.944-8.265,6.674,6.674,0,0,1,8.583-3.961l.232.083,1.659-14.992a1.02,1.02,0,0,0-.55-1.02,60.811,60.811,0,0,1-16.834-12.852,1.019,1.019,0,0,0-1.137-.256L35.8,140.167a5.757,5.757,0,0,1-1.918,7.522A5.87,5.87,0,0,1,25.9,146.03l-3.132-4.511a5.862,5.862,0,0,1,1.068-7.933A5.756,5.756,0,0,1,32,134.633L40.61,124.9a1.019,1.019,0,0,0,.124-1.172,60.193,60.193,0,0,1-7-20.972,1.017,1.017,0,0,0-.778-.857L19.2,98.718l-.014,1.614a5.9,5.9,0,0,1-5.894,5.838A5.787,5.787,0,0,1,7.5,100.332l.09-10a5.965,5.965,0,0,1,6-5.939,5.839,5.839,0,0,1,5.683,5.869l13.664-3.2a1.017,1.017,0,0,0,.778-.861A60.192,60.192,0,0,1,41.25,64.12a1.023,1.023,0,0,0-.1-1.172L34.63,55.3l-.567.747a5.127,5.127,0,0,1-7.373.843,5.223,5.223,0,0,1-.716-7.145L30.316,44a5.125,5.125,0,0,1,8.414,5.838l9.112,3.941A1.027,1.027,0,0,0,49,53.529,60.761,60.761,0,0,1,63.932,41.614a1.028,1.028,0,0,0,.508-1.04l-2.1-13.968-1.991.767a5.375,5.375,0,0,1-7.031-3.332,5.471,5.471,0,0,1,3.315-6.754L66.791,13.38a5.371,5.371,0,0,1,7.031,3.332,5.471,5.471,0,0,1-3.315,6.754l-.273.1,7.992,11.525a1.018,1.018,0,0,0,1.082.408,60.683,60.683,0,0,1,14.47-1.739h.007a1.023,1.023,0,0,0,.971-.678l2.648-7.4A6.8,6.8,0,0,1,92.685,18.4a6.948,6.948,0,0,1,7.76-5.921l3.636.456a6.914,6.914,0,0,1,6.08,7.5,6.8,6.8,0,0,1-5.04,5.838l.919,8.026a1.017,1.017,0,0,0,.8.878,60.243,60.243,0,0,1,17.231,6.7,1.017,1.017,0,0,0,1.155-.09l10.968-8.9-1.666-1.324a5.372,5.372,0,0,1-.7-7.75,5.468,5.468,0,0,1,7.5-.574L149.848,30a5.371,5.371,0,0,1,.7,7.75,5.475,5.475,0,0,1-7.5.574l-.232-.183-5.873,12.752a1.015,1.015,0,0,0,.2,1.141A60.762,60.762,0,0,1,147.556,66.4a1.025,1.025,0,0,0,1.047.543l8.327-1.165a6.478,6.478,0,0,1,4.082-8.344,6.58,6.58,0,0,1,8.14,4.041l1.918,5.144a6.593,6.593,0,0,1-3.422,8.358,6.479,6.479,0,0,1-8.127-2.575l-6.91,4.687a1.016,1.016,0,0,0-.408,1.117,60.72,60.72,0,0,1,2.181,16.17q0,1.405-.066,2.79a1.024,1.024,0,0,0,.608.985l12.956,5.659.408-2.091a5.378,5.378,0,0,1,6.308-4.241Z" transform="translate(-7.502 -12.424)" fill="#fb6400"/>
            </g>
          </g>
          <ellipse id="Ellipse_1" data-name="Ellipse 1" cx="8.557" cy="7.155" rx="8.557" ry="7.155" transform="translate(104.037 44.957)" fill="#b34444"/>
          <circle id="Ellipse_2" data-name="Ellipse 2" cx="9.353" cy="9.353" r="9.353" transform="translate(72.36 87.315)" fill="#b34444"/>
          <circle id="Ellipse_3" data-name="Ellipse 3" cx="6.697" cy="6.697" r="6.697" transform="translate(111.47 85.099)" fill="#b34444"/>
          <circle id="Ellipse_4" data-name="Ellipse 4" cx="6.511" cy="6.511" r="6.511" transform="translate(86.923 117.967)" fill="#b34444"/>
          <g id="Group_2" data-name="Group 2" transform="translate(0 0.597)">
            <path id="Path_3" data-name="Path 3" d="M56.918,92.6A71.634,71.634,0,0,1,85.244,35.49a60.274,60.274,0,0,0-5.935,1.143,1.018,1.018,0,0,1-1.082-.408L70.235,24.7l.273-.1a5.471,5.471,0,0,0,3.315-6.754,5.371,5.371,0,0,0-7.031-3.332L56.636,18.416a5.471,5.471,0,0,0-3.315,6.754A5.375,5.375,0,0,0,60.352,28.5l1.991-.767,2.1,13.968a1.028,1.028,0,0,1-.508,1.04A60.761,60.761,0,0,0,49,54.66a1.027,1.027,0,0,1-1.161.252l-9.112-3.941a5.125,5.125,0,0,0-8.414-5.838l-4.342,5.738a5.223,5.223,0,0,0,.716,7.145,5.127,5.127,0,0,0,7.373-.843l.567-.747,6.516,7.653a1.023,1.023,0,0,1,.1,1.172,60.192,60.192,0,0,0-7.536,22.078,1.017,1.017,0,0,1-.778.861l-13.664,3.2a5.839,5.839,0,0,0-5.683-5.869,5.966,5.966,0,0,0-6,5.939l-.09,10A5.787,5.787,0,0,0,13.29,107.3a5.9,5.9,0,0,0,5.894-5.838l.014-1.614,13.764,3.18a1.017,1.017,0,0,1,.778.857,60.193,60.193,0,0,0,7,20.972,1.019,1.019,0,0,1-.124,1.172L32,135.763a5.756,5.756,0,0,0-8.165-1.047,5.862,5.862,0,0,0-1.068,7.933L25.9,147.16a5.87,5.87,0,0,0,7.988,1.659A5.757,5.757,0,0,0,35.8,141.3l12.23-5.016a1.019,1.019,0,0,1,1.137.256A60.811,60.811,0,0,0,66,149.389a1.02,1.02,0,0,1,.55,1.02L64.894,165.4l-.232-.083a6.674,6.674,0,0,0-8.583,3.961,6.534,6.534,0,0,0,3.944,8.265L70.045,181.2c3.595,1.314,6.537-.747,6.537-4.573a6.536,6.536,0,0,0-3.9-8.386l-.287-.1,8.154-12.793a1.028,1.028,0,0,1,1.068-.449,60.772,60.772,0,0,0,12.164,1.227c.491,0,.989-.006,1.477-.018A71.742,71.742,0,0,1,56.918,92.6Z" transform="translate(-7.503 -14.151)" fill="#ec451a"/>
          </g>
          <circle id="Ellipse_5" data-name="Ellipse 5" cx="6.783" cy="6.783" r="6.783" transform="translate(45.91 102.12)" fill="#b34444"/>
        </g>
        <ellipse id="Ellipse_6" data-name="Ellipse 6" cx="17.855" cy="14.912" rx="17.855" ry="14.912" transform="translate(42.935 58.596) rotate(-38.257)" fill="#b34444"/>
      </g>
      <g id="Group_5" data-name="Group 5" transform="translate(0 0)">
        <path id="Path_4" data-name="Path 4" d="M197.038,174.623a7.97,7.97,0,0,0-9.072,5.235l-9.077-3.964c.019-.621.028-1.233.028-1.83A63.4,63.4,0,0,0,176.93,158.3L181,155.534A9.07,9.07,0,0,0,195.435,145.4l-1.917-5.144a9.124,9.124,0,0,0-11.379-5.6,9.09,9.09,0,0,0-6.251,8.607l-4.619.645c-.633-1.16-1.324-2.336-2.063-3.507a2.593,2.593,0,0,0-4.387,2.765c.871,1.382,1.67,2.767,2.373,4.118a3.623,3.623,0,0,0,3.7,1.911l8.33-1.163a2.593,2.593,0,0,0,2.082-3.443,3.886,3.886,0,0,1,2.449-5.007,4,4,0,0,1,4.9,2.482l1.917,5.144a4.023,4.023,0,0,1-2.026,5.076,3.9,3.9,0,0,1-4.876-1.541,2.592,2.592,0,0,0-3.672-.8l-6.909,4.686a3.611,3.611,0,0,0-1.452,3.954,58.148,58.148,0,0,1,2.09,15.478c0,.86-.022,1.759-.064,2.672a3.634,3.634,0,0,0,2.161,3.48l12.953,5.656A2.592,2.592,0,0,0,192.363,184l.411-2.091a2.782,2.782,0,0,1,5.46,1.071L196.11,193.8a2.782,2.782,0,0,1-3.4,2.165,2.893,2.893,0,0,1-2.03-3.384l.057-.289a2.593,2.593,0,0,0-2.662-3.089l-14.011.639a3.634,3.634,0,0,0-3.264,2.477,57.835,57.835,0,0,1-5.121,11.255,3.618,3.618,0,0,0,.341,4.168l6.2,7.364a2.592,2.592,0,0,0,3.77.209,3.876,3.876,0,0,1,5.746,5.168l-1.8,2.347a4.008,4.008,0,0,1-5.372.967,3.9,3.9,0,0,1-1.478-4.438,2.592,2.592,0,0,0-1.414-3.2l-8.929-3.922a3.611,3.611,0,0,0-4.126.878,58.209,58.209,0,0,1-13.666,11.071,3.634,3.634,0,0,0-1.746,3.7l2.286,13.939a2.593,2.593,0,0,0,3.522,1.988l1.978-.792a2.783,2.783,0,0,1,3.665,1.679,2.893,2.893,0,0,1-1.739,3.543l-10.1,4.041a2.782,2.782,0,0,1-3.665-1.679,2.893,2.893,0,0,1,1.738-3.543l.273-.109a2.592,2.592,0,0,0,1.147-3.913l-8.149-11.418a3.635,3.635,0,0,0-3.85-1.4,58.355,58.355,0,0,1-26.244.683,3.638,3.638,0,0,0-3.772,1.6L92.14,245.3a2.593,2.593,0,0,0,1.3,3.83l.289.105a3.946,3.946,0,0,1,2.356,5.06,2.586,2.586,0,0,0-.157.888,2.021,2.021,0,0,1-3.058,2.14l-10.02-3.654a3.965,3.965,0,0,1-2.382-4.988,3.823,3.823,0,0,1,2.005-2.2,4.219,4.219,0,0,1,3.241-.165l.23.084a2.592,2.592,0,0,0,3.465-2.15l1.661-14.993a3.634,3.634,0,0,0-1.937-3.607,58.039,58.039,0,0,1-16.117-12.3,3.626,3.626,0,0,0-4.029-.9l-12.228,5.015a2.593,2.593,0,0,0-1.3,3.62,3.151,3.151,0,0,1-1.057,4.137,3.275,3.275,0,0,1-4.434-.975l-3.132-4.509a3.254,3.254,0,0,1,.544-4.419,3.165,3.165,0,0,1,4.491.574,2.592,2.592,0,0,0,4.009.154l8.613-9.735a3.621,3.621,0,0,0,.45-4.148,58.044,58.044,0,0,1-2.56-5.228,2.593,2.593,0,0,0-4.765,2.046c.692,1.611,1.45,3.194,2.26,4.719L53.7,210.668a8.368,8.368,0,0,0-9.539.57,8.444,8.444,0,0,0-1.593,11.45L45.7,227.2a8.491,8.491,0,0,0,11.541,2.349,8.312,8.312,0,0,0,3.685-8.2l9.015-3.7a63.19,63.19,0,0,0,15.85,12.1l-1.233,11.136a9.437,9.437,0,0,0-4.324.912,8.968,8.968,0,0,0-4.677,5.2,9.177,9.177,0,0,0,5.509,11.544l10.02,3.654a8.734,8.734,0,0,0,2.989.548,6.92,6.92,0,0,0,4-1.22,7.437,7.437,0,0,0,3.016-5.885,9.149,9.149,0,0,0-3.1-9.89l6.088-9.548a63.8,63.8,0,0,0,26.472-.689l5.916,8.289a7.951,7.951,0,0,0,8.263,13.3l10.1-4.041a8.034,8.034,0,0,0,4.712-10.054,7.906,7.906,0,0,0-4.22-4.645,8.007,8.007,0,0,0-5.236-.483l-1.6-9.768a63.365,63.365,0,0,0,13.187-10.675l6.033,2.65a9.06,9.06,0,0,0,16.338,5.9l1.8-2.347a9.067,9.067,0,0,0-11.175-13.658l-3.978-4.726a63.082,63.082,0,0,0,4.673-10.277l10.168-.464a7.951,7.951,0,0,0,15.657.289l2.124-10.825a7.976,7.976,0,0,0-6.284-9.352Z" transform="translate(-26.845 -89.521)" fill="#252525"/>
        <path id="Path_5" data-name="Path 5" d="M16.7,97.032l9.717,2.244c.212,1.351.473,2.723.781,4.092a2.592,2.592,0,1,0,5.059-1.136c-.357-1.591-.647-3.185-.861-4.737a3.634,3.634,0,0,0-2.764-3.029L14.872,91.287a2.592,2.592,0,0,0-3.176,2.5L11.682,95.4a3.311,3.311,0,0,1-3.3,3.271,3.2,3.2,0,0,1-3.2-3.224l.09-10a3.487,3.487,0,0,1,1.068-2.461,3.114,3.114,0,0,1,2.269-.91,3.264,3.264,0,0,1,3.159,3.264,2.592,2.592,0,0,0,3.184,2.538l13.666-3.2a3.633,3.633,0,0,0,2.753-3.037,57.414,57.414,0,0,1,7.211-21.129,3.622,3.622,0,0,0-.375-4.148l-6.517-7.654a2.593,2.593,0,0,0-4.042.116l-.565.747a2.534,2.534,0,0,1-3.647.414,2.638,2.638,0,0,1-.307-3.586l4.341-5.739a2.531,2.531,0,0,1,4.158,2.881,2.593,2.593,0,0,0,1.158,3.771L41.9,51.254a3.616,3.616,0,0,0,4.1-.884A58.169,58.169,0,0,1,60.3,38.962,3.637,3.637,0,0,0,62.1,35.283L60,21.315A2.593,2.593,0,0,0,56.5,19.281l-1.989.765a2.782,2.782,0,0,1-3.641-1.728,2.892,2.892,0,0,1,1.786-3.52l10.154-3.906a2.782,2.782,0,0,1,3.642,1.728,2.893,2.893,0,0,1-1.786,3.52l-.274.106a2.592,2.592,0,0,0-1.2,3.9l7.994,11.524a3.634,3.634,0,0,0,3.829,1.447,58.3,58.3,0,0,1,13.857-1.663h0a3.626,3.626,0,0,0,3.412-2.4l2.647-7.406A2.593,2.593,0,0,0,93.266,18.3a4.2,4.2,0,0,1-2.916-4.5,4.082,4.082,0,0,1,1.578-2.734,4.464,4.464,0,0,1,3.284-.922l3.635.458a4.313,4.313,0,0,1,3.826,4.645,4.176,4.176,0,0,1-3.118,3.612,2.593,2.593,0,0,0-1.919,2.8l.92,8.026a3.614,3.614,0,0,0,2.817,3.116,57.59,57.59,0,0,1,16.491,6.407,3.633,3.633,0,0,0,4.086-.319l10.968-8.9a2.593,2.593,0,0,0-.022-4.043l-1.669-1.325a2.782,2.782,0,0,1-.361-4.015,2.892,2.892,0,0,1,3.939-.249l8.521,6.765a2.782,2.782,0,0,1,.361,4.015,2.894,2.894,0,0,1-3.939.249l-.23-.183a2.592,2.592,0,0,0-3.967.945L129.677,44.9a3.635,3.635,0,0,0,.7,4.036c.368.377.732.768,1.166,1.239a2.593,2.593,0,1,0,3.815-3.512c-.183-.2-.356-.386-.523-.565l4.267-9.262a7.95,7.95,0,0,0,7.449-13.775L138.029,16.3a8.033,8.033,0,0,0-11.068.9,7.9,7.9,0,0,0-1.939,5.969,8.007,8.007,0,0,0,2.179,4.786l-7.683,6.238a62.756,62.756,0,0,0-15.938-6.2l-.57-4.973a9.451,9.451,0,0,0,4.818-7.209A9.522,9.522,0,0,0,99.5,5.457L95.861,5a9.691,9.691,0,0,0-7.126,1.982A9.228,9.228,0,0,0,85.2,13.189a9.388,9.388,0,0,0,4.072,8.886l-1.5,4.2A63.5,63.5,0,0,0,74.837,27.83l-5.8-8.364A7.951,7.951,0,0,0,60.951,6.054L50.8,9.959a8.033,8.033,0,0,0-4.847,9.991,7.9,7.9,0,0,0,4.158,4.7,8.007,8.007,0,0,0,5.23.553l1.471,9.789A63.313,63.313,0,0,0,42.941,46.053l-5.853-2.531a7.762,7.762,0,0,0-2.936-7.489,7.718,7.718,0,0,0-10.812,1.5L19,43.272a7.781,7.781,0,0,0,1.123,10.7,7.655,7.655,0,0,0,5.825,1.742,7.747,7.747,0,0,0,3.675-1.44l3.927,4.613a62.518,62.518,0,0,0-7.158,20.99L16.359,82.227A8.484,8.484,0,0,0,8.75,76.9a8.284,8.284,0,0,0-6.007,2.362A8.708,8.708,0,0,0,.09,85.4L0,95.4a8.381,8.381,0,0,0,8.381,8.456A8.519,8.519,0,0,0,16.7,97.032Z" transform="translate(0 -4.927)" fill="#252525"/>
        <path id="Path_6" data-name="Path 6" d="M169.573,164.584A2.593,2.593,0,1,0,167.144,160c-6.2,3.284-13.257,2.416-16.789-2.065a11.154,11.154,0,0,1-1.919-9.379,17.847,17.847,0,0,1,17.22-13.574,11.155,11.155,0,0,1,8.672,4.057c2.975,3.775,2.938,9.41-.1,14.355a2.592,2.592,0,0,0,4.419,2.712c4.183-6.818,4.084-14.777-.251-20.277a16.244,16.244,0,0,0-12.6-6.029,23.021,23.021,0,0,0-22.441,17.689,16.247,16.247,0,0,0,2.921,13.657,16.535,16.535,0,0,0,13.2,6.012A21.612,21.612,0,0,0,169.573,164.584Z" transform="translate(-93.539 -86.631)" fill="#252525"/>
        <path id="Path_7" data-name="Path 7" d="M323.277,144.729c0-5.375-5-9.747-11.15-9.747s-11.15,4.373-11.15,9.747,5,9.747,11.15,9.747S323.277,150.1,323.277,144.729Zm-17.115,0c0-2.516,2.676-4.562,5.965-4.562s5.965,2.047,5.965,4.562-2.676,4.562-5.965,4.562S306.162,147.245,306.162,144.729Z" transform="translate(-196.939 -90.026)" fill="#252525"/>
        <path id="Path_8" data-name="Path 8" d="M233.228,269.469a11.946,11.946,0,1,0-11.946,11.946A11.959,11.959,0,0,0,233.228,269.469Zm-18.707,0a6.761,6.761,0,1,1,6.761,6.761A6.769,6.769,0,0,1,214.521,269.469Z" transform="translate(-136.976 -170.209)" fill="#252525"/>
        <path id="Path_9" data-name="Path 9" d="M341.059,260.4a9.29,9.29,0,1,0-9.29,9.29A9.3,9.3,0,0,0,341.059,260.4Zm-13.395,0a4.1,4.1,0,1,1,4.1,4.1A4.109,4.109,0,0,1,327.665,260.4Z" transform="translate(-211.01 -166.013)" fill="#252525"/>
        <path id="Path_10" data-name="Path 10" d="M260.569,364.4a9.1,9.1,0,1,0-9.1-9.1A9.114,9.114,0,0,0,260.569,364.4Zm0-13.022a3.918,3.918,0,1,1-3.919,3.918A3.923,3.923,0,0,1,260.569,351.382Z" transform="translate(-164.542 -228.231)" fill="#252525"/>
        <path id="Path_11" data-name="Path 11" d="M142.193,319.1a9.375,9.375,0,1,0-9.375-9.375A9.386,9.386,0,0,0,142.193,319.1Zm0-13.565a4.19,4.19,0,1,1-4.19,4.19A4.195,4.195,0,0,1,142.193,305.539Z" transform="translate(-86.907 -198.235)" fill="#252525"/>
        <path id="Path_12" data-name="Path 12" d="M298.51,228.706a2.592,2.592,0,0,0-2.592-2.592h-2.292a2.592,2.592,0,0,0,0,5.185h2.292A2.592,2.592,0,0,0,298.51,228.706Z" transform="translate(-190.433 -149.656)" fill="#252525"/>
        <path id="Path_13" data-name="Path 13" d="M205.117,362.4h2.355a2.593,2.593,0,0,0,0-5.185h-2.355a2.593,2.593,0,0,0,0,5.185Z" transform="translate(-132.519 -235.439)" fill="#252525"/>
        <path id="Path_14" data-name="Path 14" d="M137.679,253.176a2.592,2.592,0,0,0,0-5.185H135.41a2.592,2.592,0,1,0,0,5.185Z" transform="translate(-86.907 -163.972)" fill="#252525"/>
        <path id="Path_15" data-name="Path 15" d="M269.2,121.959a2.592,2.592,0,1,0,0-5.185h-3.157a2.592,2.592,0,0,0,0,5.185Z" transform="translate(-172.387 -78.112)" fill="#252525"/>
        <path id="Path_16" data-name="Path 16" d="M325.072,332.8a2.593,2.593,0,0,0,0,5.185h3.486a2.593,2.593,0,0,0,0-5.185Z" transform="translate(-211.009 -219.463)" fill="#252525"/>
      </g>
    </g>
  </g>
</svg>
