<svg xmlns="http://www.w3.org/2000/svg" width="32.837" height="38.091" viewBox="0 0 32.837 38.091">
    <g id="man-virus-mask-protect-covid19" transform="translate(-7 -3)">
        <path id="Path_19" data-name="Path 19" d="M32.821,13H23.627A2.627,2.627,0,0,0,21,15.627v5.911a7.224,7.224,0,0,0,14.448,0V15.627A2.627,2.627,0,0,0,32.821,13Z" transform="translate(-4.806 -3.433)" fill="#ffa791"/>
        <path id="Path_20" data-name="Path 20" d="M31.135,3H25.881a2.627,2.627,0,0,0-2.627,2.627A1.313,1.313,0,0,0,21.94,4.313H20.627A2.627,2.627,0,0,0,18,6.94v8.538h1.97V12.194A2.627,2.627,0,0,1,22.6,9.567h9.194a2.627,2.627,0,0,1,2.627,2.627v3.284h1.97V8.254A5.254,5.254,0,0,0,31.135,3Z" transform="translate(-3.776)" fill="#252525"/>
        <path id="Path_21" data-name="Path 21" d="M33.881,3H28.627A2.627,2.627,0,0,0,26,5.627v3.94h8.538a2.627,2.627,0,0,1,2.627,2.627v3.284h1.97V8.254A5.254,5.254,0,0,0,33.881,3Z" transform="translate(-6.522)" fill="#252525"/>
        <path id="Path_22" data-name="Path 22" d="M39.233,48.094A7.881,7.881,0,0,0,31.391,41H28.016c-.018,0-.035,0-.053-.005V41a4.591,4.591,0,0,1-9.089,0v-.005c-.018,0-.035.005-.053.005H15.446a7.881,7.881,0,0,0-7.842,7.1L7,54.132H39.837Z" transform="translate(0 -13.041)" fill="#fb6400"/>
        <path id="Path_23" data-name="Path 23" d="M38.92,40.992V41h.053C38.955,41,38.938,40.993,38.92,40.992Z" transform="translate(-10.957 -13.041)" fill="#00479b"/>
        <path id="Path_24" data-name="Path 24" d="M51.3,48.1A7.881,7.881,0,0,0,43.453,41H42.14a7.881,7.881,0,0,1,7.842,7.1l.6,6.038H51.9Z" transform="translate(-12.062 -13.044)" fill="#252525"/>
        <path id="Path_25" data-name="Path 25" d="M32.908,35.778a7.119,7.119,0,0,1-6.567,0v2.116A1.313,1.313,0,0,1,25.08,39.2v.005a4.591,4.591,0,0,0,9.089,0V39.2a1.313,1.313,0,0,1-1.261-1.308Z" transform="translate(-6.206 -11.251)" fill="#ffa791"/>
        <path id="Path_26" data-name="Path 26" d="M33.567,37.091V35.778a7.119,7.119,0,0,1-6.567,0v1.313a7.119,7.119,0,0,0,6.567,0Z" transform="translate(-6.865 -11.251)" fill="#ff9478"/>
        <path id="Path_27" data-name="Path 27" d="M45,57v2.627h7.881L52.618,57Z" transform="translate(-13.044 -18.536)" fill="#ec451a"/>
        <path id="Path_28" data-name="Path 28" d="M55.913,57H54.6l.263,2.627h1.313Z" transform="translate(-16.339 -18.536)" fill="#c20023"/>
        <path id="Path_29" data-name="Path 29" d="M14.881,57v2.627H7L7.263,57Z" transform="translate(0 -18.536)" fill="#ec451a"/>
        <path id="Path_30" data-name="Path 30" d="M44.249,21H42.935v3.284a7.211,7.211,0,0,1-.123,1.313h1.437a1.313,1.313,0,0,0,1.313-1.313v-1.97A1.313,1.313,0,0,0,44.249,21Z" transform="translate(-12.293 -6.179)" fill="#ff9478"/>
        <path id="Path_31" data-name="Path 31" d="M18.313,21h1.313v3.284A7.211,7.211,0,0,0,19.75,25.6H18.313A1.313,1.313,0,0,1,17,24.284v-1.97A1.313,1.313,0,0,1,18.313,21Z" transform="translate(-3.433 -6.179)" fill="#ff9478"/>
        <path id="Path_32" data-name="Path 32" d="M27.657,18a.657.657,0,0,0-.657.657v.657a.657.657,0,0,0,1.313,0v-.657A.657.657,0,0,0,27.657,18Z" transform="translate(-6.865 -5.149)" fill="#252525"/>
        <path id="Path_33" data-name="Path 33" d="M35.657,18a.657.657,0,0,0-.657.657v.657a.657.657,0,0,0,1.313,0v-.657A.657.657,0,0,0,35.657,18Z" transform="translate(-9.611 -5.149)" fill="#252525"/>
        <path id="Path_34" data-name="Path 34" d="M44.657,52a.657.657,0,0,1,.657.657v5.254H44V52.657A.657.657,0,0,1,44.657,52Z" transform="translate(-12.701 -16.82)" fill="#252525"/>
        <path id="Path_35" data-name="Path 35" d="M18.657,52a.657.657,0,0,1,.657.657v5.254H18V52.657A.657.657,0,0,1,18.657,52Z" transform="translate(-3.776 -16.82)" fill="#252525"/>
        <path id="Path_36" data-name="Path 36" d="M39.241,24.909l2.122-2.971V19.684l-3.132,4.384Z" transform="translate(-10.72 -5.727)" fill="#f1f2f2"/>
        <path id="Path_37" data-name="Path 37" d="M24.131,24.069,21,19.685v2.253l2.123,2.972Z" transform="translate(-4.806 -5.727)" fill="#f1f2f2"/>
        <path id="Path_38" data-name="Path 38" d="M29.95,21.558a1.313,1.313,0,0,0-1.392,0L24,24.407v4.948a7.2,7.2,0,0,0,10.508,0V24.407Z" transform="translate(-5.835 -6.302)" fill="#57a4ff"/>
        <path id="Path_39" data-name="Path 39" d="M32.538,24.125v2.266a3.9,3.9,0,0,1-2.222,3.55A7.158,7.158,0,0,1,24,29.81v.5a7.2,7.2,0,0,0,10.508,0v-4.95Z" transform="translate(-5.835 -7.251)" fill="#2488ff"/>
    </g>
</svg>
