<svg xmlns="http://www.w3.org/2000/svg" width="44.571" height="44.571" viewBox="0 0 44.571 44.571">
  <g id="doctor-covid19-coronavirus-hospital-laptop" transform="translate(-3 -3)">
    <path id="Path_56" data-name="Path 56" d="M44.759,3H42.453a3.074,3.074,0,0,0-3.074,3.074,1.537,1.537,0,0,0-1.537-1.537h-.768A3.074,3.074,0,0,0,34,7.611v4.825a1.518,1.518,0,0,1,.768-.214h1.537V10.685a1.537,1.537,0,0,1,1.537-1.537h7.685a1.537,1.537,0,0,1,1.537,1.537v1.537H48.6a1.518,1.518,0,0,1,.768.214V7.611A4.611,4.611,0,0,0,44.759,3Z" transform="translate(-7.177)" fill="#252525"/>
    <path id="Path_57" data-name="Path 57" d="M35.148,30H45.906a6.148,6.148,0,0,1,6.148,6.148v5.379H29V36.148A6.148,6.148,0,0,1,35.148,30Z" transform="translate(-6.02 -6.251)" fill="#b34444"/>
    <path id="Path_58" data-name="Path 58" d="M43.382,36.74l-1.725-.862-.327,7.01h4.1l-.327-7.01Z" transform="translate(-8.874 -7.612)" fill="#fb6400"/>
    <path id="Path_59" data-name="Path 59" d="M45.205,34.98l-.142-1.712v0L43.48,32,41.9,33.266v0l-.142,1.712,1.725.862Z" transform="translate(-8.973 -6.714)" fill="#fb6400"/>
    <path id="Path_60" data-name="Path 60" d="M33.768,15.214A1.537,1.537,0,0,0,33,16.537v.768a1.542,1.542,0,0,0,1.537,1.537h1.537V15H34.537a1.518,1.518,0,0,0-.768.214Z" transform="translate(-6.946 -2.778)" fill="#ffac96"/>
    <path id="Path_61" data-name="Path 61" d="M53.305,15.214A1.518,1.518,0,0,0,52.537,15H51v3.842h1.537a1.542,1.542,0,0,0,1.537-1.537v-.768A1.537,1.537,0,0,0,53.305,15.214Z" transform="translate(-11.113 -2.778)" fill="#ffac96"/>
    <path id="Path_62" data-name="Path 62" d="M46.222,11H38.537A1.537,1.537,0,0,0,37,12.537v5.379a5.379,5.379,0,0,0,10.759,0V12.537A1.537,1.537,0,0,0,46.222,11Z" transform="translate(-7.872 -1.852)" fill="#ffbcab"/>
    <path id="Path_63" data-name="Path 63" d="M47.571,46.537a1.542,1.542,0,0,1-1.537,1.537H4.537a1.537,1.537,0,0,1,0-3.074h41.5A1.542,1.542,0,0,1,47.571,46.537Z" transform="translate(0 -9.724)" fill="#252525"/>
    <path id="Path_64" data-name="Path 64" d="M41.028,32.8v0l1.583-1.266L40.305,30H38l.768,4.611Z" transform="translate(-8.103 -6.251)" fill="#ec451a"/>
    <path id="Path_65" data-name="Path 65" d="M45.583,32.8V32.8l2.259,1.807L48.611,30H46.305L44,31.537,45.583,32.8Z" transform="translate(-9.493 -6.251)" fill="#ec451a"/>
    <path id="Path_81" data-name="Path 81" d="M7.685,0A7.685,7.685,0,1,1,0,7.685,7.685,7.685,0,0,1,7.685,0Z" transform="translate(6.074 3)" fill="#8abb02"/>
    <path id="Path_66" data-name="Path 66" d="M16.768,3A7.69,7.69,0,0,0,16,3.039a7.685,7.685,0,0,1,0,15.293A7.685,7.685,0,1,0,16.768,3Z" transform="translate(-3.01)" fill="#8abb02"/>
    <path id="Path_67" data-name="Path 67" d="M14.305,15.685h3.074V13.379h2.305V10.305H17.379V8H14.305v2.305H12v3.074h2.305Z" transform="translate(-2.084 -1.158)" fill="#ec451a"/>
    <path id="Path_68" data-name="Path 68" d="M26.054,40.833H6.074L3,27H22.98Z" transform="translate(0 -5.557)" fill="#a7a9ac"/>
    <path id="Path_69" data-name="Path 69" d="M23.855,27h-.6A10.759,10.759,0,0,1,12.748,40.064H6.778l.171.768h19.98Z" transform="translate(-0.875 -5.557)" fill="#939598"/>
    <circle id="Ellipse_8" data-name="Ellipse 8" cx="2.5" cy="2.5" r="2.5" transform="translate(11 26)" fill="#f1f2f2"/>
    <path id="Path_70" data-name="Path 70" d="M7,49H45.424v9.222H7Z" transform="translate(-0.926 -10.65)" fill="#252525"/>
    <path id="Path_71" data-name="Path 71" d="M41,26.317v2.83l2.305,1.537,2.305-1.537v-2.83a5.326,5.326,0,0,1-4.611,0Z" transform="translate(-8.798 -5.399)" fill="#ffac96"/>
    <path id="Path_72" data-name="Path 72" d="M43.305,26.842A5.35,5.35,0,0,1,41,26.317v.768a5.326,5.326,0,0,0,4.611,0v-.768a5.35,5.35,0,0,1-2.305.525Z" transform="translate(-8.798 -5.399)" fill="#ff9478"/>
    <path id="Path_73" data-name="Path 73" d="M7,49H45.424v1.537H7Z" transform="translate(-0.926 -10.65)" fill="#fb6400"/>
    <g id="Group_7" data-name="Group 7" transform="translate(31.433 12.222)">
      <path id="Path_74" data-name="Path 74" d="M40.768,17.305a.768.768,0,0,0,.768-.768v-.768a.768.768,0,1,0-1.537,0v.768A.768.768,0,0,0,40.768,17.305Z" transform="translate(-40 -15)" fill="#252525"/>
      <path id="Path_75" data-name="Path 75" d="M46.768,17.305a.768.768,0,0,0,.768-.768v-.768a.768.768,0,1,0-1.537,0v.768A.768.768,0,0,0,46.768,17.305Z" transform="translate(-41.389 -15)" fill="#252525"/>
      <path id="Path_76" data-name="Path 76" d="M41.323,20.226a.768.768,0,0,0-1.081,1.088,4.031,4.031,0,0,0,5.7,0,.769.769,0,0,0-1.092-1.083,2.493,2.493,0,0,1-3.521,0Z" transform="translate(-40.011 -16.159)" fill="#252525"/>
    </g>
    <path id="Path_77" data-name="Path 77" d="M52.768,38a.768.768,0,0,1,.768.768v4.611H52V38.768A.768.768,0,0,1,52.768,38Z" transform="translate(-11.345 -8.103)" fill="#252525"/>
    <path id="Path_78" data-name="Path 78" d="M0,0H1.537V1.537A.768.768,0,1,1,0,1.537Z" transform="translate(28.36 32.202) rotate(180)" fill="#252525"/>
    <path id="Path_79" data-name="Path 79" d="M44.321,41a3.07,3.07,0,0,1-3.074,3.074H32.794L32.11,41Z" transform="translate(-6.74 -8.798)" fill="#58595b"/>
    <path id="Path_80" data-name="Path 80" d="M37.842,5h-.768A3.074,3.074,0,0,0,34,8.074V12.9a1.518,1.518,0,0,1,.768-.214h1.537V11.148a1.537,1.537,0,0,1,1.537-1.537h1.537V6.537A1.537,1.537,0,0,0,37.842,5Z" transform="translate(-7.177 -0.463)" fill="#252525"/>
  </g>
</svg>
