<svg xmlns="http://www.w3.org/2000/svg" width="47.619" height="41.774" viewBox="0 0 47.619 41.774">
  <g id="espalhar" transform="translate(0 -9.071)">
    <path id="Path_82" data-name="Path 82" d="M108.541,180.5h-2.874l2.874,14.516a1.438,1.438,0,0,0,2.874,0l2.874-5.821-2.874-5.821A2.883,2.883,0,0,0,108.541,180.5Z" transform="translate(-95.543 -159.931)" fill="#9a1e1e"/>
    <path id="Path_83" data-name="Path 83" d="M2.874,180.5H5.749L2.874,194.968a1.437,1.437,0,1,1-2.874,0V183.374A2.883,2.883,0,0,1,2.874,180.5Z" transform="translate(0 -159.931)" fill="#e88c8c"/>
    <path id="Path_84" data-name="Path 84" d="M40.125,183.374a2.883,2.883,0,0,0-2.874-2.874H32.875A2.883,2.883,0,0,0,30,183.374v25.59a1.812,1.812,0,0,0,3.625,0v-14H36.5v14a1.812,1.812,0,0,0,3.625,0Z" transform="translate(-27.127 -159.931)" fill="#b34444"/>
    <path id="Path_85" data-name="Path 85" d="M274.208,180.5h-2.874l2.874,14.516a1.438,1.438,0,0,0,2.874,0l2.874-5.821-2.874-5.821A2.883,2.883,0,0,0,274.208,180.5Z" transform="translate(-245.337 -159.931)" fill="#ad4500"/>
    <path id="Path_86" data-name="Path 86" d="M168.54,180.5h2.874l-2.874,14.468a1.437,1.437,0,1,1-2.874,0V183.374A2.883,2.883,0,0,1,168.54,180.5Z" transform="translate(-149.793 -159.931)" fill="#ff954f"/>
    <path id="Path_87" data-name="Path 87" d="M205.791,183.374a2.883,2.883,0,0,0-2.874-2.874h-4.375a2.883,2.883,0,0,0-2.874,2.874v25.59a1.812,1.812,0,0,0,3.625,0v-14h2.874v14a1.812,1.812,0,0,0,3.625,0Z" transform="translate(-176.92 -159.931)" fill="#fb6400"/>
    <path id="Path_88" data-name="Path 88" d="M439.875,180.5H437l2.874,14.516a1.438,1.438,0,0,0,2.874,0V183.374A2.883,2.883,0,0,0,439.875,180.5Z" transform="translate(-395.131 -159.931)" fill="#5c7d02"/>
    <path id="Path_89" data-name="Path 89" d="M334.207,180.5h2.874l-2.874,14.468a1.437,1.437,0,1,1-2.874,0V183.374A2.883,2.883,0,0,1,334.207,180.5Z" transform="translate(-299.587 -159.931)" fill="#c7e968"/>
    <path id="Path_90" data-name="Path 90" d="M371.458,183.374a2.883,2.883,0,0,0-2.874-2.874h-4.375a2.883,2.883,0,0,0-2.874,2.874v25.59a1.812,1.812,0,0,0,3.625,0v-14h2.874v14a1.812,1.812,0,0,0,3.625,0Z" transform="translate(-326.714 -159.931)" fill="#8abb02"/>
    <path id="Path_91" data-name="Path 91" d="M248.5,60.5v8.623a4.312,4.312,0,1,0,0-8.623Z" transform="translate(-224.692 -51.429)" fill="#ad4500"/>
    <path id="Path_92" data-name="Path 92" d="M209.25,64.812c0-2.381-.643-4.312-1.437-4.312a4.312,4.312,0,0,0,0,8.623C208.606,69.123,209.25,67.193,209.25,64.812Z" transform="translate(-184.003 -51.429)" fill="#fb6400"/>
    <path id="Path_93" data-name="Path 93" d="M414.167,60.5v8.623a4.312,4.312,0,0,0,0-8.623Z" transform="translate(-374.485 -51.429)" fill="#5c7d02"/>
    <path id="Path_94" data-name="Path 94" d="M374.916,64.812c0-2.381-.643-4.312-1.437-4.312a4.312,4.312,0,0,0,0,8.623C374.272,69.123,374.916,67.193,374.916,64.812Z" transform="translate(-333.796 -51.429)" fill="#8abb02"/>
    <path id="Path_95" data-name="Path 95" d="M82.5,60.5v8.623a4.312,4.312,0,0,0,0-8.623Z" transform="translate(-74.6 -51.429)" fill="#9a1e1e"/>
    <path id="Path_96" data-name="Path 96" d="M43.254,64.812c0-2.381-.643-4.312-1.437-4.312a4.312,4.312,0,1,0,0,8.623C42.61,69.123,43.254,67.193,43.254,64.812Z" transform="translate(-33.912 -51.429)" fill="#b34444"/>
  </g>
</svg>
