<svg xmlns="http://www.w3.org/2000/svg" width="46.882" height="46.882" viewBox="0 0 46.882 46.882">
  <g id="virus-covid19-corona-rip-dead" transform="translate(-3 -3)">
    <path id="Path_40" data-name="Path 40" d="M28.55,3A14.55,14.55,0,0,1,43.1,17.55V48.265H14V17.55A14.55,14.55,0,0,1,28.55,3Z" transform="translate(-2.109)" fill="#ec451a"/>
    <path id="Path_41" data-name="Path 41" d="M37.664,6.981a14.515,14.515,0,0,1,.585,4.057v1.617A29.1,29.1,0,0,1,14,41.343l0,7.685H43.1V18.313A14.512,14.512,0,0,0,37.664,6.981Z" transform="translate(-2.109 -0.763)" fill="#fb6400"/>
    <path id="Path_48" data-name="Path 48" d="M23.888,30.4a3.233,3.233,0,0,0-.655-6.4H20.808a.808.808,0,0,0-.808.808v9.7a.808.808,0,0,0,1.617,0V30.466h.372l3,4.486a.808.808,0,0,0,.671.364.759.759,0,0,0,.445-.137.8.8,0,0,0,.226-1.115ZM21.617,28.85V25.617h1.617a1.617,1.617,0,0,1,0,3.233Z" transform="translate(-3.259 -4.026)" fill="#252525"/>
    <path id="Path_49" data-name="Path 49" d="M31.808,35.316a.808.808,0,0,0,.808-.808v-9.7a.808.808,0,0,0-1.617,0v9.7A.808.808,0,0,0,31.808,35.316Z" transform="translate(-5.367 -4.026)" fill="#252525"/>
    <path id="Path_50" data-name="Path 50" d="M36.808,35.316a.808.808,0,0,0,.808-.808V30.466h1.617a3.233,3.233,0,1,0,0-6.466H36.808a.808.808,0,0,0-.808.808v9.7A.808.808,0,0,0,36.808,35.316Zm.808-9.7h1.617a1.617,1.617,0,1,1,0,3.233H37.617Z" transform="translate(-6.326 -4.026)" fill="#252525"/>
    <path id="Path_51" data-name="Path 51" d="M20.808,43.617H38.591a.808.808,0,1,0,0-1.617H20.808a.808.808,0,1,0,0,1.617Z" transform="translate(-3.259 -7.476)" fill="#252525"/>
    <path id="Path_52" data-name="Path 52" d="M36.741,46H23.808a.808.808,0,1,0,0,1.617H36.741a.808.808,0,1,0,0-1.617Z" transform="translate(-3.834 -8.243)" fill="#252525"/>
    <path id="Path_53" data-name="Path 53" d="M58.658,47a.808.808,0,0,0-.808.808v2.425a1.611,1.611,0,0,1-.808,1.392V47.808a.808.808,0,0,0-1.617,0v3.817a1.611,1.611,0,0,1-.808-1.392V47.808a.808.808,0,0,0-1.617,0v2.425a3.233,3.233,0,0,0,2.425,3.118v4.156a.808.808,0,1,0,1.617,0V53.352a3.233,3.233,0,0,0,2.425-3.118V47.808A.808.808,0,0,0,58.658,47Z" transform="translate(-9.585 -8.434)" fill="#8abb02"/>
    <path id="Path_54" data-name="Path 54" d="M8.658,47a.808.808,0,0,0-.808.808v2.425a1.611,1.611,0,0,1-.808,1.392V47.808a.808.808,0,0,0-1.617,0v3.817a1.611,1.611,0,0,1-.808-1.392V47.808a.808.808,0,0,0-1.617,0v2.425a3.233,3.233,0,0,0,2.425,3.118v4.156a.808.808,0,1,0,1.617,0V53.352a3.233,3.233,0,0,0,2.425-3.118V47.808A.808.808,0,0,0,8.658,47Z" transform="translate(0 -8.434)" fill="#8abb02"/>
    <path id="Path_55" data-name="Path 55" d="M12.224,55.608l-.333.137L3,59.425H49.882L40.99,55.745l-.333-.137a37.182,37.182,0,0,0-28.433,0Z" transform="translate(0 -9.543)" fill="#8abb02"/>
  </g>
</svg>
