<svg xmlns="http://www.w3.org/2000/svg" width="67" height="77" viewBox="0 0 67 77">
  <g id="Polygon_1" data-name="Polygon 1" transform="translate(67) rotate(90)" fill="#f39c12">
    <path d="M34.165,7.544a5,5,0,0,1,8.67,0L72.7,59.509A5,5,0,0,1,68.36,67H8.64A5,5,0,0,1,4.3,59.509Z" stroke="none"/>
    <path d="M 38.49999618530273 10.03556823730469 L 8.639839172363281 61.99999618530273 L 68.36015319824219 61.99999618530273 L 38.5000114440918 10.03558349609375 C 38.50000762939453 10.03557968139648 38.50000381469727 10.03557205200195 38.50000381469727 10.03556823730469 C 38.5 10.03556823730469 38.5 10.03556823730469 38.49999618530273 10.03556823730469 M 38.49999618530273 5.035568237304688 C 40.18705749511719 5.035568237304688 41.87411880493164 5.871856689453125 42.83522415161133 7.544425964355469 L 72.69538116455078 59.50885391235352 C 74.61079406738281 62.84218215942383 72.20462799072266 67 68.36015319824219 67 L 8.639839172363281 67 C 4.795379638671875 67 2.389183044433594 62.84218215942383 4.304611206054688 59.50885391235352 L 34.16476821899414 7.544425964355469 C 35.12587356567383 5.871856689453125 36.81293487548828 5.035568237304688 38.49999618530273 5.035568237304688 Z" stroke="none" fill="rgba(255,255,255,0.67)"/>
  </g>
</svg>
